<?xml version="1.0" encoding="UTF-8"?><svg xmlns="http://www.w3.org/2000/svg" xmlns:xlink="http://www.w3.org/1999/xlink" width="187.5" zoomAndPan="magnify" viewBox="0 0 187.5 187.499995" height="187.499995" preserveAspectRatio="xMidYMid meet" version="1.0"><defs><clipPath id="clip-0"><path d="M 2.273438 17.59375 L 185.273438 17.59375 L 185.273438 169.84375 L 2.273438 169.84375 Z M 2.273438 17.59375 " clip-rule="nonzero"/></clipPath><clipPath id="clip-1"><path d="M 2.273438 17.59375 L 185.273438 17.59375 L 185.273438 49 L 2.273438 49 Z M 2.273438 17.59375 " clip-rule="nonzero"/></clipPath></defs><g clip-path="url(#clip-0)"><path fill="rgb(96.078491%, 96.078491%, 96.078491%)" d="M 177.5625 17.59375 L 9.980469 17.59375 C 5.777344 17.59375 2.363281 21.042969 2.363281 25.128906 L 2.363281 162.3125 C 2.363281 166.476562 5.777344 169.84375 9.980469 169.84375 L 177.5625 169.84375 C 181.769531 169.84375 185.179688 166.394531 185.179688 162.3125 L 185.179688 25.128906 C 185.179688 20.964844 181.769531 17.59375 177.5625 17.59375 Z M 177.5625 17.59375 " fill-opacity="1" fill-rule="evenodd"/></g><g clip-path="url(#clip-1)"><path fill="rgb(0%, 0%, 0%)" d="M 177.5625 17.59375 L 9.980469 17.59375 C 5.777344 17.59375 2.363281 21.042969 2.363281 25.128906 L 2.363281 48.042969 L 185.179688 48.042969 L 185.179688 25.128906 C 185.179688 20.964844 181.769531 17.59375 177.5625 17.59375 Z M 177.5625 17.59375 " fill-opacity="1" fill-rule="evenodd"/></g><path fill="rgb(0%, 0%, 0%)" d="M 70.839844 93.71875 L 55.765625 93.71875 C 51.519531 93.71875 48.066406 97.089844 48.066406 101.410156 L 48.066406 116.476562 C 48.066406 120.71875 51.441406 124.167969 55.765625 124.167969 L 70.839844 124.167969 C 75.085938 124.167969 78.539062 120.800781 78.539062 116.476562 L 78.539062 101.410156 C 78.539062 97.167969 75.164062 93.71875 70.839844 93.71875 Z M 70.839844 93.71875 " fill-opacity="1" fill-rule="evenodd"/><path fill="rgb(61.959839%, 61.959839%, 61.959839%)" d="M 55.683594 74.6875 C 55.683594 72.585938 57.390625 70.882812 59.496094 70.882812 L 67.113281 70.882812 C 69.214844 70.882812 70.921875 72.585938 70.921875 74.6875 L 70.921875 82.300781 C 70.921875 84.402344 69.214844 86.105469 67.113281 86.105469 L 59.496094 86.105469 C 57.390625 86.105469 55.683594 84.402344 55.683594 82.300781 Z M 86.15625 74.6875 C 86.15625 72.585938 87.859375 70.882812 89.964844 70.882812 L 97.582031 70.882812 C 99.683594 70.882812 101.390625 72.585938 101.390625 74.6875 L 101.390625 82.300781 C 101.390625 84.402344 99.683594 86.105469 97.582031 86.105469 L 89.964844 86.105469 C 87.859375 86.105469 86.15625 84.402344 86.15625 82.300781 Z M 116.625 74.6875 C 116.625 72.585938 118.332031 70.882812 120.433594 70.882812 L 128.050781 70.882812 C 130.152344 70.882812 131.859375 72.585938 131.859375 74.6875 L 131.859375 82.300781 C 131.859375 84.402344 130.152344 86.105469 128.050781 86.105469 L 120.433594 86.105469 C 118.332031 86.105469 116.625 84.402344 116.625 82.300781 Z M 147.09375 74.6875 C 147.09375 72.585938 148.800781 70.882812 150.902344 70.882812 L 158.519531 70.882812 C 160.621094 70.882812 162.328125 72.585938 162.328125 74.6875 L 162.328125 82.300781 C 162.328125 84.402344 160.621094 86.105469 158.519531 86.105469 L 150.902344 86.105469 C 148.800781 86.105469 147.09375 84.402344 147.09375 82.300781 Z M 86.15625 105.136719 C 86.15625 103.039062 87.859375 101.332031 89.964844 101.332031 L 97.582031 101.332031 C 99.683594 101.332031 101.390625 103.039062 101.390625 105.136719 L 101.390625 112.75 C 101.390625 114.851562 99.683594 116.558594 97.582031 116.558594 L 89.964844 116.558594 C 87.859375 116.558594 86.15625 114.851562 86.15625 112.75 Z M 116.625 105.136719 C 116.625 103.039062 118.332031 101.332031 120.433594 101.332031 L 128.050781 101.332031 C 130.152344 101.332031 131.859375 103.039062 131.859375 105.136719 L 131.859375 112.75 C 131.859375 114.851562 130.152344 116.558594 128.050781 116.558594 L 120.433594 116.558594 C 118.332031 116.558594 116.625 114.851562 116.625 112.75 Z M 147.09375 105.136719 C 147.09375 103.039062 148.800781 101.332031 150.902344 101.332031 L 158.519531 101.332031 C 160.621094 101.332031 162.328125 103.039062 162.328125 105.136719 L 162.328125 112.75 C 162.328125 114.851562 160.621094 116.558594 158.519531 116.558594 L 150.902344 116.558594 C 148.800781 116.558594 147.09375 114.851562 147.09375 112.75 Z M 25.214844 105.136719 C 25.214844 103.039062 26.921875 101.332031 29.023438 101.332031 L 36.640625 101.332031 C 38.746094 101.332031 40.449219 103.039062 40.449219 105.136719 L 40.449219 112.75 C 40.449219 114.851562 38.746094 116.558594 36.640625 116.558594 L 29.023438 116.558594 C 26.921875 116.558594 25.214844 114.851562 25.214844 112.75 Z M 25.214844 135.589844 C 25.214844 133.488281 26.921875 131.78125 29.023438 131.78125 L 36.640625 131.78125 C 38.746094 131.78125 40.449219 133.488281 40.449219 135.589844 L 40.449219 143.199219 C 40.449219 145.300781 38.746094 147.007812 36.640625 147.007812 L 29.023438 147.007812 C 26.921875 147.007812 25.214844 145.300781 25.214844 143.199219 Z M 55.683594 135.589844 C 55.683594 133.488281 57.390625 131.78125 59.496094 131.78125 L 67.113281 131.78125 C 69.214844 131.78125 70.921875 133.488281 70.921875 135.589844 L 70.921875 143.199219 C 70.921875 145.300781 69.214844 147.007812 67.113281 147.007812 L 59.496094 147.007812 C 57.390625 147.007812 55.683594 145.300781 55.683594 143.199219 Z M 86.15625 135.589844 C 86.15625 133.488281 87.859375 131.78125 89.964844 131.78125 L 97.582031 131.78125 C 99.683594 131.78125 101.390625 133.488281 101.390625 135.589844 L 101.390625 143.199219 C 101.390625 145.300781 99.683594 147.007812 97.582031 147.007812 L 89.964844 147.007812 C 87.859375 147.007812 86.15625 145.300781 86.15625 143.199219 Z M 86.15625 135.589844 " fill-opacity="1" fill-rule="evenodd"/><path fill="rgb(96.078491%, 96.078491%, 96.078491%)" d="M 55.683594 105.136719 L 55.683594 112.75 C 55.683594 114.851562 57.390625 116.558594 59.496094 116.558594 L 67.113281 116.558594 C 69.214844 116.558594 70.921875 114.851562 70.921875 112.75 L 70.921875 105.136719 C 70.921875 103.039062 69.214844 101.332031 67.113281 101.332031 L 59.496094 101.332031 C 57.390625 101.332031 55.683594 103.039062 55.683594 105.136719 Z M 55.683594 105.136719 " fill-opacity="1" fill-rule="evenodd"/></svg>